<svg xmlns="http://www.w3.org/2000/svg" width="32" height="32" viewBox="0 0 32 32"><g transform="translate(2270.997 -961.068)"><path fill="none" stroke="#faa41a" stroke-linecap="round" stroke-linejoin="round" d="m 2257.9934,968.44525 a 1.25,1.25 0 0 1 -1.2499,-1.23821 1.25,1.25 0 0 1 1.2263,-1.26157" transform="scale(-1 1)"/><path fill="none" stroke="#faa41a" stroke-linecap="round" stroke-linejoin="round" d="m -2258.1008,970.93286 a 1.25,1.25 0 0 1 -1.25,-1.23821 1.25,1.25 0 0 1 1.2264,-1.26157"/><path fill="none" stroke="#faa41a" stroke-linecap="round" stroke-linejoin="round" d="M2257.9934 973.43286a1.25 1.25 0 0 1-1.2499-1.23821 1.25 1.25 0 0 1 1.2263-1.26157M2252.9934 968.44525a1.25 1.25 0 0 1-1.2499-1.23821 1.25 1.25 0 0 1 1.2263-1.26157" transform="scale(-1 1)"/><path fill="none" stroke="#faa41a" stroke-linecap="round" stroke-linejoin="round" d="m -2253.1008,970.93286 a 1.25,1.25 0 0 1 -1.25,-1.23821 1.25,1.25 0 0 1 1.2264,-1.26157"/><path fill="none" stroke="#faa41a" stroke-linecap="round" stroke-linejoin="round" d="M2252.9934 973.43286a1.25 1.25 0 0 1-1.2499-1.23821 1.25 1.25 0 0 1 1.2263-1.26157M2262.606 968.44525a1.25 1.25 0 0 1-1.25-1.23821 1.25 1.25 0 0 1 1.2264-1.26157" transform="scale(-1 1)"/><path fill="none" stroke="#faa41a" stroke-linecap="round" stroke-linejoin="round" d="m -2262.7134,970.93286 a 1.25,1.25 0 0 1 -1.2499,-1.23821 1.25,1.25 0 0 1 1.2263,-1.26157"/><path fill="none" stroke="#faa41a" stroke-linecap="round" stroke-linejoin="round" d="m 2262.606,973.43286 a 1.25,1.25 0 0 1 -1.25,-1.23821 1.25,1.25 0 0 1 1.2264,-1.26157" transform="scale(-1 1)"/><path fill="none" stroke="#383747" stroke-linecap="round" stroke-linejoin="round" d="m -2262.1189,988.19086 8.9983,0 0,-2.9756 c -1.9177,0.8461 -3.0344,0.9781 -4.5881,1.0102 -1.9433,0.04 -3.2604,-0.2963 -4.4102,-0.584 z"/><path fill="#faa41a" stroke="#383747" stroke-linecap="round" stroke-linejoin="round" d="m -2246.2945,977.41676 c -1.681,6.2738 -8.1018,9.9969 -14.3756,8.3159 -4.0584,-1.0875 -7.2126,-4.2417 -8.3001,-8.3001 z"/><rect width="22.685" height="2.059" x="-2268.976" y="975.412" fill="none" stroke="#383747" stroke-linecap="round" stroke-linejoin="round"/><path fill="none" stroke="#383747" stroke-linecap="round" stroke-linejoin="round" d="m -2254.3232,975.40636 c 7.7994,0.3075 5.8389,-5.2502 11.6041,-5.7528 0.5699,-0.05 0.8703,-0.061 1.6694,-0.01 l 0.031,-0.01 c -0.9951,-0.592 -2.8289,-1.5932 -4.3594,-1.1682 -0.7843,0.2178 -2.0038,1.0588 -2.8207,2.6643 -2.0576,4.5045 -4.06,4.2671 -5.6898,4.2758 z"/><path fill="none" stroke="#fff" stroke-linecap="round" stroke-linejoin="round" d="m -2249.5225,979.18436 c -0.7082,2.1593 -2.6032,3.6603 -4.8034,4.0679"/></g></svg>